<?xml version="1.0" encoding="UTF-8" standalone="no"?>
<!-- Created with Inkscape (http://www.inkscape.org/) -->

<svg
   xmlns:dc="http://purl.org/dc/elements/1.1/"
   xmlns:cc="http://creativecommons.org/ns#"
   xmlns:rdf="http://www.w3.org/1999/02/22-rdf-syntax-ns#"
   xmlns:svg="http://www.w3.org/2000/svg"
   xmlns="http://www.w3.org/2000/svg"
   xmlns:sodipodi="http://sodipodi.sourceforge.net/DTD/sodipodi-0.dtd"
   xmlns:inkscape="http://www.inkscape.org/namespaces/inkscape"
   width="297mm"
   height="210mm"
   viewBox="0 0 1052.3622 744.09448"
   id="svg2"
   version="1.1"
   inkscape:version="0.91 r13725"
   sodipodi:docname="drawing.svg">
  <defs
     id="defs4">
    <inkscape:path-effect
       effect="envelope"
       id="path-effect4176"
       is_visible="true"
       yy="true"
       xx="false"
       bendpath1="m 225.51852,305.76498 c 185.10145,103.19842 422.92589,100.51251 605.557,-9.25926"
       bendpath2="m 816.26071,394.65387 0,76.25"
       bendpath3="m 258.85185,404.2372 c 146.59041,109.45385 310.84316,139.95476 514.81627,11.11111"
       bendpath4="m 225.51852,394.65387 0,76.25"
       bendpath1-nodetypes="cc"
       bendpath3-nodetypes="cc" />
  </defs>
  <sodipodi:namedview
     id="base"
     pagecolor="#ffffff"
     bordercolor="#666666"
     borderopacity="1.0"
     inkscape:pageopacity="0.0"
     inkscape:pageshadow="2"
     inkscape:zoom="0.54"
     inkscape:cx="510.21052"
     inkscape:cy="384.72838"
     inkscape:document-units="px"
     inkscape:current-layer="layer1"
     showgrid="false"
     inkscape:window-width="1366"
     inkscape:window-height="715"
     inkscape:window-x="0"
     inkscape:window-y="27"
     inkscape:window-maximized="1" />
  <metadata
     id="metadata7">
    <rdf:RDF>
      <cc:Work
         rdf:about="">
        <dc:format>image/svg+xml</dc:format>
        <dc:type
           rdf:resource="http://purl.org/dc/dcmitype/StillImage" />
        <dc:title></dc:title>
      </cc:Work>
    </rdf:RDF>
  </metadata>
  <g
     inkscape:label="Layer 1"
     inkscape:groupmode="layer"
     id="layer1"
     transform="translate(0,-308.26772)">
    <g
       style="font-style:normal;font-weight:normal;font-size:125px;line-height:125%;font-family:sans-serif;letter-spacing:0px;word-spacing:0px;fill:#18e9ef;fill-opacity:1;stroke:none;stroke-width:1px;stroke-linecap:butt;stroke-linejoin:miter;stroke-opacity:1"
       id="text4155"
       transform="translate(-6.8234531,160.36926)">
      <path
         style="font-style:normal;font-variant:normal;font-weight:bold;font-stretch:normal;font-size:125px;line-height:125%;font-family:'Courier 10 Pitch';-inkscape-font-specification:'Courier 10 Pitch, Bold';text-align:start;writing-mode:lr-tb;text-anchor:start;fill:#18e9ef;fill-opacity:1"
         d="m 253.99868,338.15433 c 2.65774,1.41807 5.3253,2.815 8.00241,4.19065 9.03033,4.64031 14.86478,10.95419 17.16802,19.30806 2.28335,8.28173 -1.09793,10.45175 -9.56725,5.74833 -2.5515,-1.41697 -5.0941,-2.85366 -7.62762,-4.30977 -2.46956,-8.20161 -5.12808,-16.51403 -7.97556,-24.93727 z m 3.24943,-14.13237 c -8.10409,-3.91398 -16.11885,-8.01831 -24.03534,-12.31212 -4.7296,-2.56528 -5.97828,-1.30678 -3.421,5.26347 2.28461,5.86969 5.64293,10.33579 9.50207,12.53295 0.26619,0.15156 0.53249,0.3029 0.7989,0.45402 7.41922,20.30941 13.79322,39.96439 19.12199,58.96493 -0.2675,-0.18156 -0.53488,-0.36333 -0.80212,-0.54531 -3.34047,-2.27465 -4.28819,-0.57896 -2.79387,4.65711 1.75463,6.14816 4.22005,9.72482 8.0243,12.47452 5.34962,3.86668 10.75801,7.65374 16.22524,11.35198 3.86275,2.61291 5.52098,1.78126 4.26125,-4.54307 -1.26192,-6.33529 -3.79867,-9.64823 -7.89632,-12.23932 -1.67063,-1.05639 -3.3366,-2.12123 -4.9979,-3.19432 -1.29365,-5.26089 -2.67128,-10.57103 -4.13289,-15.93043 2.92877,1.78589 5.87059,3.54586 8.82522,5.27918 16.73952,9.82015 24.49244,3.91449 19.24933,-17.62445 -5.01075,-20.58439 -18.2427,-35.08144 -37.92886,-44.58914 z"
         id="path4160" />
      <path
         style="font-style:normal;font-variant:normal;font-weight:bold;font-stretch:normal;font-size:125px;line-height:125%;font-family:'Courier 10 Pitch';-inkscape-font-specification:'Courier 10 Pitch, Bold';text-align:start;writing-mode:lr-tb;text-anchor:start;fill:#18e9ef;fill-opacity:1"
         d="m 348.16447,359.1227 c -12.38976,-3.63013 -24.66201,-7.65911 -36.79034,-12.0843 -5.18459,-1.89167 -7.15504,-0.74264 -5.36466,6.47554 1.78335,7.18979 4.8097,10.51679 9.78713,12.4552 3.31994,1.29291 6.65071,2.55435 9.99182,3.78407 4.2702,21.45006 7.28112,42.36007 9.03275,62.73005 -2.96762,-1.407 -5.92292,-2.84361 -8.86578,-4.30896 -4.45638,-2.21897 -6.37011,-1.36241 -5.67743,5.33692 0.69064,6.67958 2.98182,10.01609 7.22743,12.30352 10.01076,5.39354 20.19728,10.44527 30.55983,15.10792 4.47269,2.0125 6.61177,0.16579 6.53727,-6.40294 -0.0806,-7.10327 -2.42475,-10.04186 -6.96219,-11.91565 -3.02948,-1.25107 -6.04691,-2.534 -9.05217,-3.84789 -1.19366,-20.69167 -3.63582,-41.87828 -7.32648,-63.55985 3.37175,1.13165 6.75311,2.23121 10.14358,3.29842 5.04454,1.58786 7.42388,0.0314 6.27884,-7.42947 -1.17613,-7.66344 -4.26889,-10.40415 -9.5196,-11.94258 z"
         id="path4162" />
      <path
         style="font-style:normal;font-variant:normal;font-weight:bold;font-stretch:normal;font-size:125px;line-height:125%;font-family:'Courier 10 Pitch';-inkscape-font-specification:'Courier 10 Pitch, Bold';text-align:start;writing-mode:lr-tb;text-anchor:start;fill:#18e9ef;fill-opacity:1"
         d="m 423.12071,446.23429 c -6.703,-22.63012 -14.76802,-45.13322 -24.61727,-67.90179 -3.18117,-7.43581 -4.6084,-7.89681 -8.22772,-8.68016 -0.1027,-0.0222 -0.28905,-0.0626 -0.52229,-0.11328 -3.48156,-0.75672 -6.9564,-1.54388 -10.42394,-2.36144 -5.23897,-1.23521 -7.36327,0.88669 -6.45716,8.04332 0.81076,6.40356 3.56776,10.54074 7.82903,11.63434 0.29331,0.0753 0.58667,0.15032 0.88009,0.22512 2.18983,22.25673 3.23329,44.16568 3.13037,65.72685 -0.30207,-0.10299 -0.60403,-0.20631 -0.90589,-0.30995 -3.7587,-1.29054 -5.83229,1.30717 -5.89461,7.26196 -0.0732,6.9924 2.00053,10.32654 6.41255,11.97195 5.10511,1.90389 10.24825,3.70712 15.42527,5.40604 4.44186,1.45767 6.91752,-0.37421 7.28024,-7.63101 0.36356,-7.27359 -1.89903,-10.25622 -6.47773,-11.6276 -1.03146,-0.30893 -2.06183,-0.62168 -3.09109,-0.93822 0.36555,-15.90981 0.15537,-31.97675 -0.63052,-48.20083 9.3912,23.95534 16.86296,47.66135 22.94877,71.59353 1.07825,4.21566 2.62671,4.83162 5.25024,5.508 1.85732,0.47883 3.71806,0.94394 5.58203,1.39516 2.72833,0.66045 3.2042,-0.38194 3.66609,-5.76837 2.35388,-27.44985 3.42592,-55.14553 3.21612,-83.08704 0.29904,0.0449 0.59812,0.0896 0.89722,0.13398 4.33256,0.6434 6.83072,-2.63526 6.78924,-9.29737 -0.0475,-7.62737 -2.76676,-10.5927 -8.06846,-11.31621 -6.13432,-0.83714 -12.25611,-1.76681 -18.36235,-2.78877 -5.30824,-0.88841 -7.67319,1.262 -7.2193,8.75659 0.45258,7.47316 3.09023,10.61937 8.19006,11.55229 1.14796,0.21 2.29651,0.41644 3.44563,0.61931 0.50303,16.84437 0.48816,33.57557 -0.0446,50.1936 z"
         id="path4164" />
      <path
         style="font-style:normal;font-variant:normal;font-weight:bold;font-stretch:normal;font-size:125px;line-height:125%;font-family:'Courier 10 Pitch';-inkscape-font-specification:'Courier 10 Pitch, Bold';text-align:start;writing-mode:lr-tb;text-anchor:start;fill:#18e9ef;fill-opacity:1"
         d="m 513.07746,383.51601 c -1.85367,-0.0222 -3.70726,-0.0528 -5.5607,-0.0918 -15.94877,-0.33331 -31.89015,-1.28797 -47.77267,-2.85972 -5.35092,-0.52953 -7.93327,2.0258 -7.96442,9.46925 -0.0279,6.66392 2.35931,10.61018 6.72289,11.09779 0.3003,0.0336 0.60063,0.0669 0.90098,0.0999 -0.59748,23.18591 -1.91924,46.26208 -3.96526,69.22852 -0.31428,-0.0501 -0.6285,-0.10056 -0.94267,-0.15139 -3.9046,-0.63171 -6.40021,2.54734 -6.9897,8.9365 -0.69206,7.50073 1.30856,10.61928 5.94029,11.43981 13.81611,2.44757 27.76369,4.1199 41.77156,4.95469 1.62788,0.0974 3.25627,0.18344 4.88505,0.25828 4.80113,0.22058 6.24115,-1.54098 7.17777,-8.32428 1.05526,-7.64254 2.0822,-15.2861 3.08084,-22.93066 1.04331,-7.98663 0.0692,-11.85532 -4.80148,-12.00785 -2.32865,-0.0729 -4.02521,0.74646 -5.26076,2.56574 -1.2839,1.89227 -2.06522,4.85316 -2.55983,8.99788 -0.44668,3.74297 -0.90307,7.48543 -1.36917,11.22738 -8.99922,-0.48867 -17.98308,-1.29448 -26.93437,-2.40425 0.9519,-9.29396 1.80484,-18.60002 2.55881,-27.91818 3.49316,0.36834 6.98947,0.69589 10.48805,0.98212 -0.0535,0.57722 -0.10733,1.15441 -0.16148,1.73156 -0.63063,6.72108 1.08035,10.19566 5.05568,10.48896 4.44461,0.32791 6.47823,-3.4704 7.31805,-11.39042 0.69024,-6.50931 1.3476,-13.02084 1.97209,-19.53462 0.76192,-7.94723 -0.67582,-11.86079 -5.38563,-12.11844 -4.21508,-0.23058 -6.58949,3.08312 -7.15317,10.21295 -0.0305,0.3853 -0.0611,0.77059 -0.0918,1.15586 -3.54163,-0.2562 -7.08159,-0.55089 -10.61908,-0.88372 0.5283,-7.99221 0.98406,-15.99329 1.36728,-24.00324 9.77416,0.79885 19.56389,1.33947 29.35522,1.61813 -0.30028,3.2961 -0.60807,6.5918 -0.92337,9.8871 -0.39295,4.10685 -0.25602,7.19566 0.65746,9.23964 0.85328,1.91112 2.38716,2.91681 4.81214,2.97266 4.87797,0.11235 7.00028,-3.79151 7.93071,-11.94919 0.80588,-7.06565 1.58759,-14.13216 2.34515,-21.19953 0.73145,-6.82379 -0.40486,-8.73179 -5.88444,-8.79745 z"
         id="path4166" />
      <path
         style="font-style:normal;font-variant:normal;font-weight:bold;font-stretch:normal;font-size:125px;line-height:125%;font-family:'Courier 10 Pitch';-inkscape-font-specification:'Courier 10 Pitch, Bold';text-align:start;writing-mode:lr-tb;text-anchor:start;fill:#18e9ef;fill-opacity:1"
         d="m 548.86508,494.88156 c 1.38462,-0.11896 2.71238,-0.24053 3.97891,-0.36247 7.15312,-0.68867 13.38668,-2.0622 20.34029,-9.88892 5.92696,-6.70937 10.34592,-16.16814 12.36778,-26.08321 2.79358,-13.69955 0.75678,-21.60033 -7.05077,-25.62804 6.26458,-5.51491 10.63811,-13.58017 12.75201,-23.52827 4.17729,-19.65855 -2.40704,-29.36042 -21.25467,-27.8344 -9.98919,0.80878 -19.99618,1.37337 -30.00808,1.69247 -5.49728,0.17522 -8.47289,2.92615 -9.45076,10.73091 -0.85382,6.81468 1.14356,10.49801 5.52745,10.37497 0.34508,-0.01 0.69016,-0.0197 1.03523,-0.03 -3.28018,23.67629 -6.68021,47.34743 -10.20009,71.01344 -0.31814,0.007 -0.63629,0.0136 -0.95443,0.0199 -4.06828,0.0799 -6.81868,3.57631 -7.8074,10.39894 -1.12714,7.77786 0.81451,10.54313 5.62669,10.45015 8.37548,-0.16182 16.74663,-0.60794 25.09784,-1.32542 z m 0.13474,-67.79239 c 1.2855,-8.01267 2.56986,-16.02629 3.8531,-24.04086 3.49566,-0.2033 6.99046,-0.43941 10.48374,-0.70816 8.30708,-0.6391 11.51877,2.23691 9.88594,10.86969 -1.76954,9.35562 -6.82209,12.65402 -16.06977,13.34031 -2.71711,0.20164 -5.4349,0.38137 -8.15301,0.53902 z m -7.75791,48.25991 c 1.56269,-9.70177 3.12374,-19.40493 4.68313,-29.1095 3.18963,-0.18448 6.37878,-0.40199 9.56679,-0.65214 11.06961,-0.8686 16.13818,1.08894 13.90157,13.05432 -2.10673,11.27052 -8.29728,15.23704 -19.45392,16.11481 -2.89791,0.228 -5.7973,0.42565 -8.69757,0.59251 z"
         id="path4168" />
      <path
         style="font-style:normal;font-variant:normal;font-weight:bold;font-stretch:normal;font-size:125px;line-height:125%;font-family:'Courier 10 Pitch';-inkscape-font-specification:'Courier 10 Pitch, Bold';text-align:start;writing-mode:lr-tb;text-anchor:start;fill:#18e9ef;fill-opacity:1"
         d="m 622.01908,464.18435 c -9.1233,2.28747 -12.84139,-9.68061 -7.01001,-33.88632 5.83696,-24.22886 15.99892,-38.64902 26.58957,-40.94596 5.16461,-1.12012 8.49428,1.14207 9.61643,6.70135 1.1369,5.61026 0.0331,14.47038 -3.41066,26.63756 -3.42643,12.10578 -7.59017,21.93968 -11.99512,28.96563 -4.39751,7.02097 -9.09834,11.35135 -13.79021,12.52774 z m 42.63415,-46.27446 c 8.24308,-26.96732 6.69208,-45.31543 -4.97685,-50.07604 -3.21314,-1.31118 -7.16301,-1.54416 -11.75838,-0.58154 -10.68246,2.2377 -21.49422,10.00528 -30.42454,21.62205 -8.97499,11.67489 -15.90264,26.98862 -19.75947,44.53979 -7.71647,35.11518 1.65307,57.01153 19.15564,52.40505 3.96841,-1.04444 7.94732,-3.24271 11.8651,-6.38997 13.7143,-11.01463 27.73129,-34.80024 35.8985,-61.51934 z"
         id="path4170" />
      <path
         style="font-style:normal;font-variant:normal;font-weight:bold;font-stretch:normal;font-size:125px;line-height:125%;font-family:'Courier 10 Pitch';-inkscape-font-specification:'Courier 10 Pitch, Bold';text-align:start;writing-mode:lr-tb;text-anchor:start;fill:#18e9ef;fill-opacity:1"
         d="m 675.90634,445.58996 c 1.93633,-3.92209 3.8974,-7.84891 5.88373,-11.78166 8.04827,-2.98977 16.03586,-6.17613 23.95902,-9.54749 -0.55785,3.30163 -1.11661,6.60428 -1.67368,9.89086 -0.62718,0.2749 -1.25479,0.54864 -1.88282,0.82121 -4.55616,1.97741 -7.68919,5.2083 -10.3353,13.00773 -2.64017,7.78193 -1.14407,9.25382 3.23517,7.28503 5.26219,-2.36574 10.49002,-4.81341 15.6831,-7.33768 4.32861,-2.10406 7.47935,-5.70392 10.4736,-13.46056 2.56133,-6.63516 1.86405,-9.05662 -1.98579,-7.23588 -0.2345,0.11091 -0.53157,0.25121 -0.87574,0.4133 4.40643,-23.34987 9.23103,-49.62946 13.65096,-73.80915 1.18969,-6.40694 1.62815,-8.51224 -3.89556,-6.51396 -7.66643,2.77343 -15.38996,5.38954 -23.16386,7.8476 -5.36765,1.69722 -8.90323,5.16532 -11.64009,12.97852 -2.79665,7.9839 -1.13102,9.74529 3.93693,8.0921 1.655,-0.53987 3.30781,-1.08726 4.95838,-1.64216 -13.92453,25.41354 -26.77141,50.45782 -38.68032,75.43261 -0.35765,0.12347 -0.66646,0.22963 -0.91048,0.31336 -3.99951,1.3723 -7.16028,5.50881 -9.05266,12.21894 -2.21162,7.84215 -0.51499,9.52376 3.99915,7.89731 4.64649,-1.67415 9.26841,-3.41763 13.8655,-5.2271 4.47476,-1.76132 7.53684,-5.19474 10.04969,-12.96891 2.5197,-7.79533 0.96273,-9.15098 -3.68143,-7.39486 -0.63876,0.24154 -1.27793,0.48182 -1.9175,0.72084 z m 16.30174,-32.60078 c 7.30516,-14.21996 14.91799,-28.49433 22.85418,-42.87127 -2.29746,13.31542 -4.02838,23.37084 -6.28783,36.48424 -5.4941,2.21802 -11.01677,4.34795 -16.56635,6.38703 z"
         id="path4172" />
      <path
         style="font-style:normal;font-variant:normal;font-weight:bold;font-stretch:normal;font-size:125px;line-height:125%;font-family:'Courier 10 Pitch';-inkscape-font-specification:'Courier 10 Pitch, Bold';text-align:start;writing-mode:lr-tb;text-anchor:start;fill:#18e9ef;fill-opacity:1"
         d="m 732.87615,436.6248 c 10.04685,-5.39126 19.95627,-11.05099 29.72529,-16.93834 4.21794,-2.54197 7.58092,-6.84021 10.99561,-14.15138 3.69594,-7.91335 2.81646,-9.15525 -1.49108,-6.60331 -2.86261,1.69592 -5.7365,3.37071 -8.62149,5.02362 10.43249,-23.26883 21.1777,-46.69731 32.23565,-70.28545 3.93001,-2.13438 7.83796,-4.31424 11.72287,-6.53914 -2.96702,6.36799 -5.9178,12.72646 -8.85285,19.07575 -0.89127,1.87615 -1.76503,3.88897 -1.82511,4.01566 -1.84265,3.88523 -1.65692,6.73582 1.62872,4.77644 4.15263,-2.4764 7.4917,-7.15599 11.17643,-14.75069 0.12627,-0.26026 0.25257,-0.52054 0.37888,-0.78083 4.42601,-9.38862 8.87387,-18.79159 13.34586,-28.2107 4.4871,-9.50635 5.39172,-11.63134 -0.48123,-8.21571 -16.19538,9.41901 -32.84395,18.02558 -49.86403,25.81095 -6.21913,2.84478 -7.49325,5.2142 -11.86957,14.87247 -4.28977,9.53515 -8.49789,19.03642 -12.6236,28.50387 -0.1077,0.25692 -0.21534,0.51382 -0.32293,0.77069 -3.14488,7.50871 -2.89847,10.35937 1.43778,8.2718 3.53211,-1.70045 7.16351,-6.39324 9.74339,-12.35592 0.41173,-0.95159 0.75642,-1.74692 1.00206,-2.31337 2.87527,-6.42005 5.7851,-12.85502 8.72924,-19.30489 4.02379,-1.9289 8.02769,-3.90426 12.01074,-5.92562 -10.69869,23.53255 -21.01518,46.88136 -30.94948,70.04643 -2.91873,1.58385 -5.84831,3.14465 -8.78857,4.68163 -4.42719,2.31425 -7.6991,5.90843 -10.82592,13.70932 -2.89129,7.21326 -1.96099,9.14794 2.38334,6.81672 z"
         id="path4174" />
    </g>
  </g>
</svg>
